<?xml version="1.0" standalone="no"?>
<!DOCTYPE svg PUBLIC "-//W3C//DTD SVG 20010904//EN"
 "http://www.w3.org/TR/2001/REC-SVG-20010904/DTD/svg10.dtd">
<svg version="1.0" xmlns="http://www.w3.org/2000/svg"
 width="832.000000pt" height="1280.000000pt" viewBox="0 0 832.000000 1280.000000"
 preserveAspectRatio="xMidYMid meet">
 <style>
 svg{
    fill: #0062a3
 }
 </style>
<metadata>
Created by potrace 1.15, written by Peter Selinger 2001-2017
</metadata>
<g transform="translate(0.000000,1280.000000) scale(0.100000,-0.100000)"
fill="#0062a3" stroke="none">
<path d="M6285 12787 c-22 -8 -53 -21 -70 -30 -16 -8 -1412 -1399 -3101 -3089
-2773 -2774 -3073 -3078 -3090 -3123 -12 -32 -19 -76 -19 -120 1 -142 -282
153 3146 -3279 2625 -2627 3102 -3100 3144 -3118 70 -31 180 -31 251 0 42 19
187 160 891 865 935 937 878 871 878 1013 0 59 -5 80 -30 128 -25 47 -325 352
-1770 1799 -957 958 -1929 1932 -2160 2164 l-420 423 2146 2147 c2384 2386
2192 2182 2192 2324 0 137 43 87 -891 1020 -660 659 -847 841 -885 859 -59 27
-156 35 -212 17z"/>
</g>
</svg>
